<?xml version="1.0" standalone="no"?>
<!DOCTYPE svg PUBLIC "-//W3C//DTD SVG 20010904//EN"
 "http://www.w3.org/TR/2001/REC-SVG-20010904/DTD/svg10.dtd">
<svg version="1.0" xmlns="http://www.w3.org/2000/svg"
 width="256.000000pt" height="256.000000pt" viewBox="0 0 256.000000 256.000000"
 preserveAspectRatio="xMidYMid meet">

<g transform="translate(0.000000,256.000000) scale(0.100000,-0.100000)"
fill="#000000" stroke="none">
<path d="M1258 2463 c-14 -10 -53 -39 -86 -65 -47 -36 -76 -50 -133 -64 -155
-36 -299 -129 -299 -191 0 -17 -8 -50 -18 -74 -16 -37 -19 -67 -17 -179 2
-146 31 -444 46 -472 5 -10 9 -39 8 -65 l-1 -48 -13 30 c-16 36 -52 71 -63 61
-4 -4 6 -18 21 -30 31 -25 50 -79 61 -168 6 -49 5 -57 -11 -61 -12 -3 -9 -5 9
-6 21 -1 32 -12 56 -53 38 -67 105 -136 177 -184 49 -33 54 -40 41 -50 -9 -6
-26 -26 -39 -45 -38 -56 -41 -63 -28 -55 49 31 103 -134 82 -249 -13 -70 -13
-78 0 -46 5 13 14 65 19 115 8 76 7 93 -6 107 -14 15 -14 17 2 15 31 -2 61
165 31 177 -28 11 -143 115 -198 180 -77 92 -127 216 -113 281 l6 28 19 -28
c27 -42 65 -57 155 -62 107 -6 184 16 218 61 13 17 34 62 46 99 31 97 69 103
95 14 23 -79 55 -127 100 -150 33 -18 58 -21 150 -21 120 0 152 11 179 63 l14
26 6 -30 c9 -41 -35 -178 -75 -235 -45 -62 -191 -204 -228 -220 -30 -14 -31
-15 -25 -64 10 -73 29 -130 43 -127 9 2 9 -3 1 -18 -11 -21 0 -141 19 -205 12
-40 13 -10 1 40 -6 25 -6 51 0 70 5 17 14 61 19 99 11 78 18 88 59 90 l29 1
-26 40 c-14 22 -32 48 -40 58 -8 9 -12 18 -10 20 92 67 141 115 184 181 43 66
54 76 80 77 25 1 26 3 7 6 -22 4 -23 8 -17 56 12 94 33 154 63 175 15 11 24
24 20 28 -11 10 -47 -25 -63 -61 l-13 -30 -1 46 c-1 25 5 59 13 75 24 47 41
161 41 279 1 62 6 122 13 138 18 41 15 94 -7 141 -11 23 -27 66 -35 97 -17 60
-80 142 -118 155 -22 7 -22 7 4 28 30 24 41 55 29 75 -8 12 -13 12 -35 -2 -36
-24 -47 -22 -100 19 -60 46 -105 64 -158 64 -28 0 -54 8 -77 24 -51 35 -81 40
-113 19z m326 -552 c43 -14 80 -34 96 -51 28 -29 53 -105 65 -194 4 -27 9 -56
13 -64 5 -13 2 -13 -18 1 -14 9 -34 17 -46 17 -12 0 -43 12 -70 27 -66 37
-157 39 -203 6 -27 -21 -42 -23 -141 -23 -99 0 -114 2 -141 23 -46 33 -137 31
-203 -6 -27 -15 -58 -27 -70 -27 -12 0 -32 -7 -45 -16 -22 -16 -23 -16 -17 2
3 11 10 50 16 89 12 74 39 146 68 179 9 10 38 29 63 40 44 21 59 22 305 21
240 -2 264 -3 328 -24z m-4 -301 c63 -5 125 -12 137 -15 31 -7 47 -71 40 -164
-9 -122 -49 -156 -183 -155 -145 0 -193 32 -228 153 -20 67 -31 81 -66 81 -35
0 -46 -14 -66 -81 -23 -77 -49 -115 -92 -132 -93 -37 -239 -29 -280 16 -56 61
-56 268 1 282 91 22 543 32 737 15z"/>
<path d="M1145 1397 c-11 -6 -45 -17 -75 -23 -35 -8 -45 -13 -27 -13 36 -1
116 19 123 31 10 15 0 17 -21 5z"/>
<path d="M1390 1400 c0 -15 40 -28 102 -35 l53 -5 -55 13 c-30 7 -65 19 -77
25 -15 8 -23 9 -23 2z"/>
<path d="M1070 1123 c0 -6 67 -33 81 -33 7 0 9 3 5 7 -9 9 -86 33 -86 26z"/>
<path d="M1448 1116 c-38 -12 -60 -26 -39 -26 16 0 81 28 81 34 0 4 -1 6 -2 5
-2 -1 -20 -6 -40 -13z"/>
<path d="M1281 784 c0 -11 3 -14 6 -6 3 7 2 16 -1 19 -3 4 -6 -2 -5 -13z"/>
<path d="M1674 677 c3 -10 9 -37 12 -58 6 -37 4 -43 -26 -68 -19 -16 -29 -30
-23 -34 5 -3 22 6 37 22 32 33 37 83 12 126 -10 17 -15 22 -12 12z"/>
<path d="M870 562 c0 -12 57 -52 64 -45 3 3 -9 17 -26 30 -35 26 -38 27 -38
15z"/>
<path d="M2071 434 c0 -11 3 -14 6 -6 3 7 2 16 -1 19 -3 4 -6 -2 -5 -13z"/>
<path d="M1032 395 c0 -16 2 -22 5 -12 2 9 2 23 0 30 -3 6 -5 -1 -5 -18z"/>
<path d="M1522 385 c0 -16 2 -22 5 -12 2 9 2 23 0 30 -3 6 -5 -1 -5 -18z"/>
<path d="M770 376 c0 -2 8 -10 18 -17 15 -13 16 -12 3 4 -13 16 -21 21 -21 13z"/>
<path d="M811 320 c14 -31 19 -36 19 -24 0 6 -7 19 -16 30 -14 18 -14 18 -3
-6z"/>
<path d="M967 333 c-10 -9 -8 -45 2 -62 13 -20 36 -1 50 40 9 28 9 29 -18 29
-15 0 -31 -3 -34 -7z"/>
<path d="M1543 332 c-9 -5 -6 -16 9 -41 20 -32 22 -32 35 -15 28 38 -6 81 -44
56z"/>
<path d="M2111 294 c0 -11 3 -14 6 -6 3 7 2 16 -1 19 -3 4 -6 -2 -5 -13z"/>
<path d="M1260 275 c-13 -14 -38 -35 -56 -47 -25 -17 -36 -34 -43 -68 -17 -77
6 -82 51 -10 28 46 33 49 48 35 15 -14 19 -13 35 5 18 20 19 20 48 -30 36 -63
57 -66 57 -7 0 39 -5 46 -59 94 l-58 52 -23 -24z"/>
<path d="M421 274 c0 -11 3 -14 6 -6 3 7 2 16 -1 19 -3 4 -6 -2 -5 -13z"/>
<path d="M1681 238 c18 -27 34 -48 36 -48 7 0 -16 35 -42 65 -20 23 -19 18 6
-17z"/>
<path d="M411 234 c0 -11 3 -14 6 -6 3 7 2 16 -1 19 -3 4 -6 -2 -5 -13z"/>
<path d="M859 233 c-29 -35 -41 -53 -36 -53 2 0 17 16 31 35 28 36 31 49 5 18z"/>
<path d="M2131 194 c0 -11 3 -14 6 -6 3 7 2 16 -1 19 -3 4 -6 -2 -5 -13z"/>
<path d="M402 180 c0 -14 2 -19 5 -12 2 6 2 18 0 25 -3 6 -5 1 -5 -13z"/>
<path d="M1720 176 c0 -2 8 -10 18 -17 15 -13 16 -12 3 4 -13 16 -21 21 -21
13z"/>
<path d="M392 125 c0 -16 2 -22 5 -12 2 9 2 23 0 30 -3 6 -5 -1 -5 -18z"/>
<path d="M2142 125 c0 -16 2 -22 5 -12 2 9 2 23 0 30 -3 6 -5 -1 -5 -18z"/>
<path d="M1780 96 c19 -26 39 -50 44 -54 5 -3 -6 16 -24 42 -19 26 -39 50 -44
54 -5 3 6 -16 24 -42z"/>
<path d="M764 108 l-19 -23 23 19 c12 11 22 21 22 23 0 8 -8 2 -26 -19z"/>
<path d="M382 60 c0 -14 2 -19 5 -12 2 6 2 18 0 25 -3 6 -5 1 -5 -13z"/>
<path d="M1270 71 c0 -6 -17 -11 -38 -11 -31 0 -43 -6 -60 -30 l-23 -30 126 0
127 0 -24 30 c-13 16 -34 32 -48 36 -14 3 -33 8 -42 11 -10 2 -18 0 -18 -6z"/>
<path d="M2151 54 c0 -11 3 -14 6 -6 3 7 2 16 -1 19 -3 4 -6 -2 -5 -13z"/>
<path d="M699 23 c-13 -16 -12 -17 4 -4 9 7 17 15 17 17 0 8 -8 3 -21 -13z"/>
<path d="M1830 26 c0 -2 8 -10 18 -17 15 -13 16 -12 3 4 -13 16 -21 21 -21 13z"/>
</g>
</svg>
